{"title":"G-Deep - Nach Leh Ft Senjay and Cappadonna - [2010] [Video] [PbT","uid":5992416,"size":41118275,"categoryP":"video","categoryS":"music_videos","magnet":"?xt=urn:btih:bc69600073f1c2a62ef3e40640225c45862288db&amp;dn=G-Deep+-+Nach+Leh+Ft+Senjay+and+Cappadonna+-+%5B2010%5D+%5BVideo%5D+%5BPbT&amp;tr=udp%3A%2F%2Ftracker.openbittorrent.com%3A80&amp;tr=udp%3A%2F%2Fopen.demonii.com%3A1337&amp;tr=udp%3A%2F%2Ftracker.coppersurfer.tk%3A6969&amp;tr=udp%3A%2F%2Fexodus.desync.com%3A6969","seeders":0,"leechers":1,"uploader":"PBTONE","files":-1,"time":1290935385,"description":"      :::::::::  :::::::::   ::::::::::: ::::::::  ::::    ::: :::::::::: \n     :+:    :+: :+:    :+:      :+:    :+:    :+: :+:+:   :+: :+:         \n    +:+    +:+ +:+    +:+      +:+    +:+    +:+ :+:+:+  +:+ +:+          \n   +#++:++#+  +#++:++#+       +#+    +#+    +:+ +#+ +:+ +#+ +#++:++#      \n  +#+        +#+    +#+      +#+    +#+    +#+ +#+  +#+#+# +#+            \n #+#        #+#    #+#      #+#    #+#    #+# #+#   #+#+# #+#             \n###        #########       ###     ########  ###    #### ########## \n\n\n\n\nGeneral\nFormat                           : Flash Video\nFile size                        : 39.0 MiB\nDuration                         : 4mn 5s\nOverall bit rate                 : 1 331 Kbps\nhttphostheader                   : v1.cache6.c.youtube.com\n\nVideo\nFormat                           : AVC\nFormat/Info                      : Advanced Video Codec\nFormat profile                   : &lt;a class=&quot;__cf_email__&quot; href=&quot;/cdn-cgi/l/email-protection&quot; data-cfemail=&quot;9dd0fcf4f3ddd1aeb3ac&quot;&gt;[email&amp;#160;protected]&lt;/a&gt;&lt;script cf-hash='f9e31' type=&quot;text/javascript&quot;&gt;\n/* &lt;![CDATA[ */!function(){try{var t=&quot;currentScript&quot;in document?document.currentScript:function(){for(var t=document.getElementsByTagName(&quot;script&quot;),e=t.length;e--;)if(t[e].getAttribute(&quot;cf-hash&quot;))return t[e]}();if(t&amp;&amp;t.previousSibling){var e,r,n,i,c=t.previousSibling,a=c.getAttribute(&quot;data-cfemail&quot;);if(a){for(e=&quot;&quot;,r=parseInt(a.substr(0,2),16),n=2;a.length-n;n+=2)i=parseInt(a.substr(n,2),16)^r,e+=String.fromCharCode(i);e=document.createTextNode(e),c.parentNode.replaceChild(e,c)}}}catch(u){}}();/* ]]&gt; */&lt;/script&gt;\nFormat settings, CABAC           : Yes\nFormat settings, ReFrames        : 3 frames\nDuration                         : 4mn 5s\nBit rate                         : 1 202 Kbps\nWidth                            : 854 pixels\nHeight                           : 470 pixels\nDisplay aspect ratio             : 16:9\nFrame rate mode                  : Constant\nFrame rate                       : 29.970 fps\nColor space                      : YUV\nChroma subsampling               : 4:2:0\nBit depth                        : 8 bits\nScan type                        : Progressive\nBits/(Pixel*Frame)               : 0.100\nStream size                      : 35.2 MiB (90%)\n\nAudio\nFormat                           : AAC\nFormat/Info                      : Advanced Audio Codec\nFormat version                   : Version 4\nFormat profile                   : LC\nDuration                         : 4mn 5s\nBit rate                         : 122 Kbps\nChannel(s)                       : 2 channels\nChannel positions                : Front: L R\nSampling rate                    : 44.1 KHz\nBit depth                        : 16 bits\nCompression mode                 : Lossy\nStream size                      : 3.58 MiB (9%)\n\n\n\n\nScreens:- http://imagehacks.in/share-A7F4_4CF20C1F.html","torrent":{"xt":"urn:btih:bc69600073f1c2a62ef3e40640225c45862288db","amp;dn":"G-Deep+-+Nach+Leh+Ft+Senjay+and+Cappadonna+-+%5B2010%5D+%5BVideo%5D+%5BPbT","amp;tr":["udp%3A%2F%2Ftracker.openbittorrent.com%3A80","udp%3A%2F%2Fopen.demonii.com%3A1337","udp%3A%2F%2Ftracker.coppersurfer.tk%3A6969","udp%3A%2F%2Fexodus.desync.com%3A6969"],"infoHash":"bc69600073f1c2a62ef3e40640225c45862288db","infoHashBuffer":{"type":"Buffer","data":[188,105,96,0,115,241,194,166,46,243,228,6,64,34,92,69,134,34,136,219]},"announce":[],"urlList":[]}}